<svg xmlns="http://www.w3.org/2000/svg" width="250" height="239" fill="none" viewBox="0 0 250 239">
  <path fill="#131318" d="M68.669 165.3c-1.034 0-1.967-.177-2.8-.53a5.372 5.372 0 0 1-2.05-1.53c-.534-.667-.88-1.457-1.04-2.37l2.18-.33c.22.88.68 1.567 1.38 2.06.7.487 1.517.73 2.45.73.58 0 1.113-.09 1.6-.27.487-.187.877-.45 1.17-.79.3-.347.45-.76.45-1.24a1.614 1.614 0 0 0-.51-1.21 2.014 2.014 0 0 0-.57-.39 4.298 4.298 0 0 0-.73-.29l-3.69-1.09a8.918 8.918 0 0 1-1.1-.41 4.342 4.342 0 0 1-1.03-.67 3.284 3.284 0 0 1-.75-1.03c-.194-.413-.29-.913-.29-1.5 0-.887.227-1.637.68-2.25.46-.62 1.08-1.087 1.86-1.4.78-.32 1.653-.48 2.62-.48.973.013 1.843.187 2.61.52a4.93 4.93 0 0 1 1.92 1.44c.513.62.867 1.373 1.06 2.26l-2.24.38a2.941 2.941 0 0 0-.64-1.39 3.21 3.21 0 0 0-1.2-.9 3.829 3.829 0 0 0-1.54-.33 3.778 3.778 0 0 0-1.47.24c-.44.173-.793.417-1.06.73-.26.313-.39.673-.39 1.08 0 .4.116.723.35.97.233.247.52.443.86.59.347.14.69.257 1.03.35l2.66.75c.333.093.71.22 1.13.38.427.153.837.37 1.23.65.4.28.73.653.99 1.12.26.46.39 1.04.39 1.74 0 .727-.147 1.367-.44 1.92a4.06 4.06 0 0 1-1.21 1.38 5.501 5.501 0 0 1-1.76.83 7.78 7.78 0 0 1-2.11.28Zm12.44 0c-1.072 0-2.016-.233-2.83-.7a4.977 4.977 0 0 1-1.89-1.97c-.446-.847-.67-1.827-.67-2.94 0-1.18.22-2.203.66-3.07.448-.867 1.068-1.537 1.86-2.01.794-.473 1.718-.71 2.77-.71 1.1 0 2.038.257 2.81.77.774.507 1.35 1.23 1.73 2.17.388.94.54 2.057.46 3.35h-2.09v-.76c-.012-1.253-.252-2.18-.72-2.78-.46-.6-1.162-.9-2.11-.9-1.046 0-1.832.33-2.36.99-.526.66-.79 1.613-.79 2.86 0 1.187.264 2.107.79 2.76.528.647 1.288.97 2.28.97.654 0 1.218-.147 1.69-.44.48-.3.854-.727 1.12-1.28l2.05.65c-.42.967-1.056 1.717-1.91 2.25-.852.527-1.802.79-2.85.79Zm-3.85-5.11v-1.63h7.71v1.63h-7.71ZM95.54 165v-5.31c0-.42-.036-.85-.11-1.29-.066-.447-.2-.86-.4-1.24a2.344 2.344 0 0 0-.83-.92c-.353-.233-.816-.35-1.39-.35-.373 0-.726.063-1.06.19-.333.12-.626.317-.88.59-.246.273-.443.633-.59 1.08-.14.447-.21.99-.21 1.63l-1.3-.49c0-.98.184-1.843.55-2.59a4.135 4.135 0 0 1 1.58-1.76c.687-.42 1.517-.63 2.49-.63.747 0 1.374.12 1.88.36.507.24.917.557 1.23.95.32.387.564.81.73 1.27.167.46.28.91.34 1.35.06.44.09.827.09 1.16v6h-2.12Zm-7.59 0v-10.8h1.87v3.12h.25V165h-2.12Zm12.515-12.57v-2.03h2.09v2.03h-2.09Zm0 12.57v-10.8h2.09V165h-2.09Zm9.783.3c-1.08 0-2.016-.243-2.81-.73a4.93 4.93 0 0 1-1.84-2.01c-.426-.86-.64-1.85-.64-2.97 0-1.127.22-2.117.66-2.97a4.838 4.838 0 0 1 1.85-2c.794-.48 1.72-.72 2.78-.72 1.08 0 2.017.243 2.81.73a4.917 4.917 0 0 1 1.84 2.01c.434.853.65 1.837.65 2.95 0 1.127-.22 2.12-.66 2.98a4.917 4.917 0 0 1-1.84 2.01c-.793.48-1.726.72-2.8.72Zm0-1.97c1.034 0 1.804-.347 2.31-1.04.514-.7.77-1.6.77-2.7 0-1.127-.26-2.027-.78-2.7-.513-.68-1.28-1.02-2.3-1.02-.7 0-1.276.16-1.73.48-.453.313-.79.75-1.01 1.31-.22.553-.33 1.197-.33 1.93 0 1.133.26 2.04.78 2.72.52.68 1.284 1.02 2.29 1.02Zm7.498 1.67v-10.8h1.86v2.62l-.26-.34c.133-.347.306-.663.52-.95.213-.293.46-.533.74-.72.273-.2.576-.353.91-.46.34-.113.686-.18 1.04-.2.353-.027.693-.01 1.02.05v1.96a3.397 3.397 0 0 0-1.18-.08c-.427.04-.82.177-1.18.41-.34.22-.61.487-.81.8a3.36 3.36 0 0 0-.42 1.05c-.087.38-.13.783-.13 1.21V165h-2.11Zm11.738 0v-14.4h5.82c.14 0 .313.007.52.02.207.007.403.027.59.06.8.127 1.467.4 2 .82.54.42.943.95 1.21 1.59.267.64.4 1.347.4 2.12 0 .78-.133 1.49-.4 2.13-.267.64-.67 1.17-1.21 1.59-.533.42-1.2.693-2 .82a7.334 7.334 0 0 1-.6.06c-.207.013-.377.02-.51.02h-3.73V165h-2.09Zm2.09-7.15h3.65c.133 0 .28-.007.44-.02.167-.013.323-.037.47-.07.427-.1.77-.283 1.03-.55.26-.273.447-.587.56-.94a3.373 3.373 0 0 0 0-2.11 2.339 2.339 0 0 0-.56-.93c-.26-.273-.603-.46-1.03-.56a2.532 2.532 0 0 0-.47-.08 5.489 5.489 0 0 0-.44-.02h-3.65v5.28Zm10.649 7.15v-14.7h2.09V165h-2.09Zm8.143.3c-.8 0-1.47-.147-2.01-.44-.54-.3-.95-.693-1.23-1.18a3.289 3.289 0 0 1-.41-1.62c0-.547.097-1.027.29-1.44.193-.413.48-.763.86-1.05.38-.293.847-.53 1.4-.71.48-.14 1.023-.263 1.63-.37a53.825 53.825 0 0 1 1.91-.3c.673-.093 1.34-.187 2-.28l-.76.42c.013-.847-.167-1.473-.54-1.88-.367-.413-1-.62-1.9-.62-.567 0-1.087.133-1.56.4-.473.26-.803.693-.99 1.3l-1.95-.6c.267-.927.773-1.663 1.52-2.21.753-.547 1.753-.82 3-.82.967 0 1.807.167 2.52.5a3.11 3.11 0 0 1 1.58 1.56c.173.353.28.727.32 1.12.04.393.06.817.06 1.27V165h-1.85v-2.47l.36.32c-.447.827-1.017 1.443-1.71 1.85-.687.4-1.533.6-2.54.6Zm.37-1.71c.593 0 1.103-.103 1.53-.31a3 3 0 0 0 1.03-.81c.26-.327.43-.667.51-1.02.113-.32.177-.68.19-1.08.02-.4.03-.72.03-.96l.68.25-1.8.27c-.54.08-1.03.16-1.47.24a8.71 8.71 0 0 0-1.16.27c-.287.1-.543.22-.77.36-.22.14-.397.31-.53.51-.127.2-.19.443-.19.73 0 .28.07.54.21.78.14.233.353.42.64.56.287.14.653.21 1.1.21Zm8.821 6.21 2.09-5.69.03 1.68-4.71-11.59h2.18l3.52 8.95h-.64l3.36-8.95h2.12l-5.96 15.6h-1.99Zm13.916-4.5c-1.073 0-2.016-.233-2.83-.7a4.985 4.985 0 0 1-1.89-1.97c-.446-.847-.67-1.827-.67-2.94 0-1.18.22-2.203.66-3.07.447-.867 1.067-1.537 1.86-2.01.794-.473 1.717-.71 2.77-.71 1.1 0 2.037.257 2.81.77.774.507 1.35 1.23 1.73 2.17.387.94.54 2.057.46 3.35h-2.09v-.76c-.013-1.253-.253-2.18-.72-2.78-.46-.6-1.163-.9-2.11-.9-1.046 0-1.833.33-2.36.99-.526.66-.79 1.613-.79 2.86 0 1.187.264 2.107.79 2.76.527.647 1.287.97 2.28.97.654 0 1.217-.147 1.69-.44.48-.3.854-.727 1.12-1.28l2.05.65c-.42.967-1.056 1.717-1.91 2.25-.853.527-1.803.79-2.85.79Zm-3.85-5.11v-1.63h7.71v1.63h-7.71Zm10.994 4.81v-10.8h1.86v2.62l-.26-.34c.133-.347.306-.663.52-.95.213-.293.46-.533.74-.72.273-.2.576-.353.91-.46.34-.113.686-.18 1.04-.2.353-.027.693-.01 1.02.05v1.96a3.397 3.397 0 0 0-1.18-.08c-.427.04-.82.177-1.18.41-.34.22-.61.487-.81.8a3.36 3.36 0 0 0-.42 1.05c-.087.38-.13.783-.13 1.21V165h-2.11Z"/>
  <path fill="#E7E7E8" d="M184 60c0 33.137-26.863 60-60 60S64 93.137 64 60 90.863 0 124 0s60 26.863 60 60ZM75.469 60c0 26.803 21.728 48.531 48.531 48.531 26.803 0 48.531-21.728 48.531-48.531 0-26.803-21.728-48.531-48.531-48.531-26.803 0-48.531 21.728-48.531 48.531Z"/>
  <path fill="#FFB546" d="M174.134 80.768c2.926 1.212 6.309-.172 7.237-3.2a60 60 0 1 0-30.453 36.055c2.831-1.421 3.629-4.988 1.945-7.67-1.685-2.682-5.213-3.456-8.075-2.099a48.532 48.532 0 1 1 25.925-30.696c-.858 3.048.495 6.398 3.421 7.61Z"/>
  <path fill="#131318" d="M101.68 50.448c1.335 0 2.529.313 3.584.938 1.064.625 1.904 1.498 2.52 2.618.616 1.11.924 2.399.924 3.864v5.852c0 1.587-.308 2.959-.924 4.116a6.5 6.5 0 0 1-2.604 2.66c-1.12.616-2.436.924-3.948.924a8.97 8.97 0 0 1-2.8-.434c-.887-.29-1.699-.78-2.436-1.47l2.716-2.716a3.65 3.65 0 0 0 1.162.784c.439.187.891.28 1.358.28.728 0 1.358-.168 1.89-.504a3.542 3.542 0 0 0 1.246-1.33c.299-.55.448-1.134.448-1.75v-2.996l.644.7a6.058 6.058 0 0 1-2.016 1.358 6.177 6.177 0 0 1-2.352.462c-1.27 0-2.39-.285-3.36-.854a6.132 6.132 0 0 1-2.268-2.338c-.541-.99-.812-2.119-.812-3.388 0-1.27.322-2.413.966-3.43a7.049 7.049 0 0 1 2.562-2.436 6.944 6.944 0 0 1 3.5-.91Zm0 3.64c-.579 0-1.111.14-1.596.42-.476.28-.859.658-1.148 1.134a3.062 3.062 0 0 0-.42 1.582c0 .579.14 1.11.42 1.596.28.476.658.859 1.134 1.148.476.28 1.003.42 1.582.42.579 0 1.106-.14 1.582-.42a3.23 3.23 0 0 0 1.148-1.148 3.062 3.062 0 0 0 .434-1.596c0-.56-.14-1.078-.42-1.554a3.258 3.258 0 0 0-1.134-1.148 2.986 2.986 0 0 0-1.582-.434Zm18.426 17.332c-1.493 0-2.8-.313-3.92-.938a6.66 6.66 0 0 1-2.618-2.618c-.625-1.12-.938-2.427-.938-3.92v-6.048c0-1.493.313-2.8.938-3.92a6.66 6.66 0 0 1 2.618-2.618c1.12-.625 2.427-.938 3.92-.938 1.493 0 2.8.313 3.92.938a6.66 6.66 0 0 1 2.618 2.618c.625 1.12.938 2.427.938 3.92v6.048c0 1.493-.313 2.8-.938 3.92a6.66 6.66 0 0 1-2.618 2.618c-1.12.625-2.427.938-3.92.938Zm0-3.612a3.531 3.531 0 0 0 3.108-1.764 3.535 3.535 0 0 0 .476-1.82v-6.636a3.535 3.535 0 0 0-3.584-3.584 3.531 3.531 0 0 0-3.108 1.764 3.535 3.535 0 0 0-.476 1.82v6.636a3.535 3.535 0 0 0 3.584 3.584ZM134.577 71l-2.52-2.52 17.64-17.64 2.52 2.548L134.577 71Zm13.44.42a4.924 4.924 0 0 1-2.534-.672 5.304 5.304 0 0 1-1.82-1.82 4.876 4.876 0 0 1-.686-2.548c0-.915.233-1.755.7-2.52a5.353 5.353 0 0 1 1.848-1.834 4.77 4.77 0 0 1 2.492-.686 4.85 4.85 0 0 1 2.534.686 5.008 5.008 0 0 1 1.82 1.82c.457.756.686 1.6.686 2.534 0 .933-.229 1.783-.686 2.548a5.154 5.154 0 0 1-1.82 1.82 4.924 4.924 0 0 1-2.534.672Zm0-3.22c.327 0 .625-.084.896-.252.28-.168.504-.387.672-.658.168-.28.252-.583.252-.91 0-.327-.084-.625-.252-.896a1.93 1.93 0 0 0-.672-.672 1.666 1.666 0 0 0-.896-.252c-.327 0-.63.084-.91.252-.271.168-.49.392-.658.672-.168.27-.252.57-.252.896 0 .327.084.63.252.91.168.27.387.49.658.658.28.168.583.252.91.252Zm-11.76-7.7a4.924 4.924 0 0 1-2.534-.672 5.268 5.268 0 0 1-1.834-1.82 4.95 4.95 0 0 1-.672-2.548c0-.915.233-1.755.7-2.52a5.353 5.353 0 0 1 1.848-1.834 4.77 4.77 0 0 1 2.492-.686c.924 0 1.764.229 2.52.686a5.116 5.116 0 0 1 1.834 1.82c.457.756.686 1.6.686 2.534 0 .933-.229 1.783-.686 2.548a5.268 5.268 0 0 1-1.834 1.82 4.85 4.85 0 0 1-2.52.672Zm0-3.22c.327 0 .625-.084.896-.252.28-.168.504-.387.672-.658.168-.28.252-.583.252-.91 0-.327-.084-.625-.252-.896a1.93 1.93 0 0 0-.672-.672 1.666 1.666 0 0 0-.896-.252c-.327 0-.63.084-.91.252-.271.168-.49.392-.658.672-.168.27-.252.57-.252.896 0 .327.084.63.252.91.168.27.387.49.658.658.28.168.583.252.91.252Z"/>
  <path fill="#131318" fill-opacity=".6" d="m2.765 206 3.968-11.52h1.56L12.261 206h-1.224L7.27 195.136h.464L3.99 206H2.765Zm1.768-2.792v-1.104h5.952v1.104H4.533ZM24.01 206l.008-5.672c0-.667-.187-1.189-.56-1.568-.368-.384-.837-.576-1.408-.576-.325 0-.643.075-.952.224a1.83 1.83 0 0 0-.768.72c-.197.331-.296.763-.296 1.296l-.696-.2c-.016-.619.104-1.16.36-1.624a2.783 2.783 0 0 1 1.072-1.08 3.082 3.082 0 0 1 1.552-.392c.87 0 1.565.269 2.088.808.523.533.784 1.256.784 2.168L25.186 206H24.01Zm-10.312 0v-8.64h1.056v2.128h.128V206h-1.184Zm5.168 0 .008-5.592c0-.688-.184-1.229-.552-1.624-.363-.4-.843-.6-1.44-.6s-1.08.205-1.448.616c-.368.405-.552.947-.552 1.624l-.704-.384c0-.555.13-1.051.392-1.488a2.79 2.79 0 0 1 1.072-1.04 3.085 3.085 0 0 1 1.544-.384c.55 0 1.037.117 1.464.352.432.235.77.576 1.016 1.024.245.448.368.992.368 1.632L20.026 206h-1.16Zm11.996.24c-.843 0-1.573-.187-2.192-.56a3.801 3.801 0 0 1-1.432-1.576c-.341-.677-.512-1.472-.512-2.384 0-.944.168-1.76.504-2.448.336-.688.808-1.219 1.416-1.592.613-.373 1.336-.56 2.168-.56.853 0 1.581.197 2.184.592.603.389 1.059.949 1.368 1.68.31.731.45 1.603.424 2.616h-1.2v-.416c-.021-1.12-.264-1.965-.728-2.536-.459-.571-1.13-.856-2.016-.856-.928 0-1.64.301-2.136.904-.49.603-.736 1.461-.736 2.576 0 1.088.245 1.933.736 2.536.496.597 1.197.896 2.104.896.619 0 1.157-.141 1.616-.424.464-.288.83-.701 1.096-1.24l1.096.424a3.919 3.919 0 0 1-1.512 1.752c-.661.411-1.41.616-2.248.616Zm-3.304-4.232v-.984h6.6v.984h-6.6ZM41.269 206a5.788 5.788 0 0 1-1.44.12 3.195 3.195 0 0 1-1.264-.304 1.823 1.823 0 0 1-.84-.848 2.493 2.493 0 0 1-.256-.968 35.3 35.3 0 0 1-.016-1.128v-7.912h1.168v7.864c0 .363.003.667.008.912.011.24.067.453.168.64.192.357.496.571.912.64.422.069.942.053 1.56-.048V206Zm-5.664-7.632v-1.008h5.664v1.008h-5.664Zm14.154 7.872c-.87 0-1.606-.195-2.208-.584a3.718 3.718 0 0 1-1.376-1.608c-.31-.688-.47-1.477-.48-2.368.01-.907.176-1.701.496-2.384.32-.688.781-1.221 1.384-1.6.602-.384 1.333-.576 2.192-.576.874 0 1.634.213 2.28.64a3.227 3.227 0 0 1 1.336 1.752l-1.152.368a2.436 2.436 0 0 0-.968-1.2 2.672 2.672 0 0 0-1.504-.432c-.635 0-1.16.147-1.576.44-.416.288-.726.691-.928 1.208-.203.517-.307 1.112-.312 1.784.01 1.035.25 1.867.72 2.496.469.624 1.168.936 2.096.936.586 0 1.085-.133 1.496-.4.416-.272.73-.667.944-1.184l1.184.352c-.32.768-.79 1.355-1.408 1.76-.619.4-1.358.6-2.216.6Zm8.649 0c-.859 0-1.592-.195-2.2-.584a3.798 3.798 0 0 1-1.4-1.616c-.326-.688-.488-1.477-.488-2.368 0-.907.165-1.701.496-2.384.33-.683.8-1.213 1.408-1.592.613-.384 1.341-.576 2.184-.576.864 0 1.6.195 2.208.584a3.68 3.68 0 0 1 1.4 1.608c.325.683.488 1.469.488 2.36 0 .907-.163 1.704-.488 2.392a3.737 3.737 0 0 1-1.408 1.6c-.614.384-1.347.576-2.2.576Zm0-1.128c.96 0 1.674-.317 2.144-.952.469-.64.704-1.469.704-2.488 0-1.045-.238-1.877-.712-2.496-.47-.619-1.182-.928-2.136-.928-.646 0-1.179.147-1.6.44-.416.288-.728.691-.936 1.208-.203.512-.304 1.104-.304 1.776 0 1.04.24 1.875.72 2.504.48.624 1.186.936 2.12.936Zm12.1.888v-4.408c0-.48-.045-.92-.136-1.32a3.048 3.048 0 0 0-.44-1.056 2.009 2.009 0 0 0-.776-.704c-.314-.165-.698-.248-1.152-.248-.416 0-.784.072-1.104.216a2.176 2.176 0 0 0-.8.624 2.8 2.8 0 0 0-.488.976 4.688 4.688 0 0 0-.168 1.312l-.832-.184c0-.885.155-1.629.464-2.232.31-.603.736-1.059 1.28-1.368.544-.309 1.168-.464 1.872-.464.518 0 .968.08 1.352.24.39.16.718.376.984.648.272.272.491.584.656.936.166.347.286.717.36 1.112.075.389.112.779.112 1.168V206h-1.184Zm-6.248 0v-8.64h1.064v2.128h.12V206H64.26Zm12.732.232c-1.013 0-1.848-.219-2.504-.656a2.733 2.733 0 0 1-1.2-1.824l1.2-.2c.128.491.42.883.872 1.176.46.288 1.024.432 1.696.432.656 0 1.174-.136 1.552-.408.38-.277.568-.653.568-1.128 0-.267-.06-.483-.184-.648-.117-.171-.36-.328-.728-.472-.368-.144-.917-.315-1.648-.512-.784-.213-1.397-.427-1.84-.64-.442-.213-.757-.459-.944-.736-.186-.283-.28-.627-.28-1.032 0-.491.14-.92.416-1.288.278-.373.662-.661 1.152-.864.491-.208 1.062-.312 1.712-.312.651 0 1.232.107 1.744.32.518.208.934.501 1.248.88.315.379.502.819.56 1.32l-1.2.216a1.727 1.727 0 0 0-.76-1.2c-.42-.299-.957-.453-1.608-.464-.613-.016-1.112.101-1.496.352-.384.245-.576.573-.576.984 0 .229.07.427.208.592.14.16.39.312.752.456.368.144.891.301 1.568.472.795.203 1.42.416 1.872.64.454.224.776.488.968.792.192.304.288.68.288 1.128 0 .816-.304 1.459-.912 1.928-.602.464-1.434.696-2.496.696Zm8.839.008c-.843 0-1.574-.187-2.192-.56a3.8 3.8 0 0 1-1.432-1.576c-.342-.677-.512-1.472-.512-2.384 0-.944.168-1.76.504-2.448.336-.688.808-1.219 1.416-1.592.613-.373 1.336-.56 2.168-.56.853 0 1.581.197 2.184.592.602.389 1.058.949 1.368 1.68.309.731.45 1.603.424 2.616h-1.2v-.416c-.022-1.12-.264-1.965-.728-2.536-.459-.571-1.131-.856-2.016-.856-.928 0-1.64.301-2.136.904-.491.603-.736 1.461-.736 2.576 0 1.088.245 1.933.736 2.536.496.597 1.197.896 2.104.896.618 0 1.157-.141 1.616-.424.464-.288.829-.701 1.096-1.24l1.096.424a3.919 3.919 0 0 1-1.512 1.752c-.662.411-1.411.616-2.248.616Zm-3.304-4.232v-.984h6.6v.984h-6.6Zm12.591 4.232c-.87 0-1.605-.195-2.208-.584a3.717 3.717 0 0 1-1.376-1.608c-.31-.688-.47-1.477-.48-2.368.01-.907.176-1.701.496-2.384.32-.688.781-1.221 1.384-1.6.603-.384 1.333-.576 2.192-.576.875 0 1.635.213 2.28.64a3.227 3.227 0 0 1 1.336 1.752l-1.152.368a2.437 2.437 0 0 0-.968-1.2 2.673 2.673 0 0 0-1.504-.432c-.635 0-1.16.147-1.576.44-.416.288-.725.691-.928 1.208-.203.517-.307 1.112-.312 1.784.01 1.035.25 1.867.72 2.496.47.624 1.168.936 2.096.936.587 0 1.085-.133 1.496-.4.416-.272.73-.667.944-1.184l1.184.352c-.32.768-.79 1.355-1.408 1.76-.619.4-1.357.6-2.216.6Zm9.979-.24a5.786 5.786 0 0 1-1.44.12 3.2 3.2 0 0 1-1.264-.304 1.823 1.823 0 0 1-.84-.848 2.505 2.505 0 0 1-.256-.968 37.49 37.49 0 0 1-.016-1.128v-7.912h1.168v7.864c0 .363.003.667.008.912.011.24.067.453.168.64.192.357.496.571.912.64.422.069.942.053 1.56-.048V206Zm-5.664-7.632v-1.008h5.664v1.008h-5.664Zm10.71 7.872c-.842 0-1.573-.187-2.192-.56a3.807 3.807 0 0 1-1.432-1.576c-.341-.677-.512-1.472-.512-2.384 0-.944.168-1.76.504-2.448.336-.688.808-1.219 1.416-1.592.614-.373 1.336-.56 2.168-.56.854 0 1.582.197 2.184.592.603.389 1.059.949 1.368 1.68.31.731.451 1.603.424 2.616h-1.2v-.416c-.021-1.12-.264-1.965-.728-2.536-.458-.571-1.13-.856-2.016-.856-.928 0-1.64.301-2.136.904-.49.603-.736 1.461-.736 2.576 0 1.088.246 1.933.736 2.536.496.597 1.198.896 2.104.896.619 0 1.158-.141 1.616-.424.464-.288.83-.701 1.096-1.24l1.096.424a3.915 3.915 0 0 1-1.512 1.752c-.661.411-1.41.616-2.248.616Zm-3.304-4.232v-.984h6.6v.984h-6.6ZM120.551 206a5.794 5.794 0 0 1-1.44.12 3.19 3.19 0 0 1-1.264-.304 1.823 1.823 0 0 1-.84-.848 2.488 2.488 0 0 1-.256-.968 34.437 34.437 0 0 1-.016-1.128v-7.912h1.168v7.864c0 .363.002.667.008.912.01.24.066.453.168.64.192.357.496.571.912.64.421.069.941.053 1.56-.048V206Zm-5.664-7.632v-1.008h5.664v1.008h-5.664Zm10.67 7.848c-.518 0-.971-.08-1.36-.24a3.01 3.01 0 0 1-.984-.648 3.398 3.398 0 0 1-.648-.928 4.622 4.622 0 0 1-.36-1.112 6.292 6.292 0 0 1-.112-1.176v-4.752h1.184v4.408c0 .475.045.915.136 1.32.09.405.234.76.432 1.064a2.1 2.1 0 0 0 .776.696c.32.165.706.248 1.16.248.416 0 .781-.072 1.096-.216.32-.144.586-.349.8-.616.218-.272.384-.6.496-.984.112-.389.168-.827.168-1.312l.832.184c0 .885-.155 1.629-.464 2.232-.31.603-.736 1.059-1.28 1.368-.544.309-1.168.464-1.872.464Zm2.904-.216v-2.128h-.12v-6.512h1.176V206h-1.056Zm3.292 0v-8.64h1.056v2.08l-.208-.272a2.95 2.95 0 0 1 .376-.704 2.41 2.41 0 0 1 .504-.536c.224-.197.485-.347.784-.448.298-.107.6-.168.904-.184.304-.021.581 0 .832.064v1.104a2.846 2.846 0 0 0-1.032-.056 1.964 1.964 0 0 0-1.032.448 2.144 2.144 0 0 0-.648.808c-.144.309-.24.64-.288.992a7.524 7.524 0 0 0-.072 1.032V206h-1.176Zm4.708 0v-1.368h1.368V206h-1.368Zm11.706.24c-1.147 0-2.115-.253-2.904-.76-.79-.512-1.387-1.219-1.792-2.12-.406-.901-.608-1.941-.608-3.12s.202-2.219.608-3.12c.405-.901 1.002-1.605 1.792-2.112.789-.512 1.757-.768 2.904-.768 1.338 0 2.432.344 3.28 1.032.848.683 1.429 1.6 1.744 2.752l-1.2.312c-.246-.912-.686-1.635-1.32-2.168-.635-.533-1.47-.8-2.504-.8-.902 0-1.651.205-2.248.616-.598.411-1.048.984-1.352 1.72-.299.731-.454 1.576-.464 2.536-.006.96.141 1.805.44 2.536.304.731.757 1.304 1.36 1.72.608.411 1.362.616 2.264.616 1.034 0 1.869-.267 2.504-.8.634-.539 1.074-1.261 1.32-2.168l1.2.312c-.315 1.152-.896 2.072-1.744 2.76-.848.683-1.942 1.024-3.28 1.024Zm10.397 0c-.859 0-1.592-.195-2.2-.584a3.796 3.796 0 0 1-1.4-1.616c-.325-.688-.488-1.477-.488-2.368 0-.907.165-1.701.496-2.384.331-.683.8-1.213 1.408-1.592.613-.384 1.341-.576 2.184-.576.864 0 1.6.195 2.208.584a3.68 3.68 0 0 1 1.4 1.608c.325.683.488 1.469.488 2.36 0 .907-.163 1.704-.488 2.392a3.737 3.737 0 0 1-1.408 1.6c-.613.384-1.347.576-2.2.576Zm0-1.128c.96 0 1.675-.317 2.144-.952.469-.64.704-1.469.704-2.488 0-1.045-.237-1.877-.712-2.496-.469-.619-1.181-.928-2.136-.928-.645 0-1.179.147-1.6.44-.416.288-.728.691-.936 1.208-.203.512-.304 1.104-.304 1.776 0 1.04.24 1.875.72 2.504.48.624 1.187.936 2.12.936Zm12.101.888v-4.408c0-.48-.046-.92-.136-1.32a3.069 3.069 0 0 0-.44-1.056 2.014 2.014 0 0 0-.776-.704c-.315-.165-.699-.248-1.152-.248-.416 0-.784.072-1.104.216a2.167 2.167 0 0 0-.8.624 2.787 2.787 0 0 0-.488.976 4.688 4.688 0 0 0-.168 1.312l-.832-.184c0-.885.154-1.629.464-2.232.309-.603.736-1.059 1.28-1.368.544-.309 1.168-.464 1.872-.464.517 0 .968.08 1.352.24.389.16.717.376.984.648.272.272.49.584.656.936.165.347.285.717.36 1.112.074.389.112.779.112 1.168V206h-1.184Zm-6.248 0v-8.64h1.064v2.128h.12V206h-1.184Zm12.797.24c-.805 0-1.493-.2-2.064-.6-.57-.405-1.008-.952-1.312-1.64-.304-.688-.456-1.464-.456-2.328 0-.859.15-1.632.448-2.32.304-.688.739-1.232 1.304-1.632.566-.4 1.243-.6 2.032-.6.811 0 1.494.197 2.048.592.555.395.974.936 1.256 1.624.288.683.432 1.461.432 2.336 0 .859-.141 1.635-.424 2.328-.282.688-.698 1.235-1.248 1.64-.549.4-1.221.6-2.016.6Zm.12-1.096c.614 0 1.12-.149 1.52-.448.4-.299.699-.709.896-1.232.198-.528.296-1.125.296-1.792 0-.677-.098-1.275-.296-1.792-.197-.523-.496-.931-.896-1.224-.394-.293-.893-.44-1.496-.44-.618 0-1.13.152-1.536.456-.405.304-.706.717-.904 1.24a5.076 5.076 0 0 0-.288 1.76c0 .656.099 1.248.296 1.776.203.523.504.936.904 1.24.4.304.902.456 1.504.456Zm2.712.856v-6.504h-.128v-5.016h1.184V206h-1.056Zm3.461-10.28v-1.32h1.176v1.32h-1.176Zm0 10.28v-8.64h1.176V206h-1.176Zm13.878 0 .008-5.672c0-.667-.187-1.189-.56-1.568-.368-.384-.837-.576-1.408-.576-.325 0-.643.075-.952.224a1.836 1.836 0 0 0-.768.72c-.197.331-.296.763-.296 1.296l-.696-.2c-.016-.619.104-1.16.36-1.624a2.782 2.782 0 0 1 1.072-1.08 3.083 3.083 0 0 1 1.552-.392c.869 0 1.565.269 2.088.808.523.533.784 1.256.784 2.168l-.008 5.896h-1.176Zm-10.312 0v-8.64h1.056v2.128h.128V206h-1.184Zm5.168 0 .008-5.592c0-.688-.184-1.229-.552-1.624-.363-.4-.843-.6-1.44-.6s-1.08.205-1.448.616c-.368.405-.552.947-.552 1.624l-.704-.384c0-.555.131-1.051.392-1.488a2.79 2.79 0 0 1 1.072-1.04 3.084 3.084 0 0 1 1.544-.384c.549 0 1.037.117 1.464.352.432.235.771.576 1.016 1.024.245.448.368.992.368 1.632l-.008 5.864h-1.16Zm11.996.24c-.843 0-1.573-.187-2.192-.56a3.8 3.8 0 0 1-1.432-1.576c-.341-.677-.512-1.472-.512-2.384 0-.944.168-1.76.504-2.448.336-.688.808-1.219 1.416-1.592.613-.373 1.336-.56 2.168-.56.853 0 1.581.197 2.184.592.603.389 1.059.949 1.368 1.68.309.731.451 1.603.424 2.616h-1.2v-.416c-.021-1.12-.264-1.965-.728-2.536-.459-.571-1.131-.856-2.016-.856-.928 0-1.64.301-2.136.904-.491.603-.736 1.461-.736 2.576 0 1.088.245 1.933.736 2.536.496.597 1.197.896 2.104.896.619 0 1.157-.141 1.616-.424.464-.288.829-.701 1.096-1.24l1.096.424a3.915 3.915 0 0 1-1.512 1.752c-.661.411-1.411.616-2.248.616Zm-3.304-4.232v-.984h6.6v.984h-6.6ZM215.946 206v-4.408c0-.48-.045-.92-.136-1.32a3.05 3.05 0 0 0-.44-1.056 2.006 2.006 0 0 0-.776-.704c-.315-.165-.699-.248-1.152-.248-.416 0-.784.072-1.104.216a2.175 2.175 0 0 0-.8.624 2.804 2.804 0 0 0-.488.976 4.688 4.688 0 0 0-.168 1.312l-.832-.184c0-.885.155-1.629.464-2.232.309-.603.736-1.059 1.28-1.368.544-.309 1.168-.464 1.872-.464.517 0 .968.08 1.352.24.389.16.717.376.984.648.272.272.491.584.656.936.165.347.285.717.36 1.112.075.389.112.779.112 1.168V206h-1.184Zm-6.248 0v-8.64h1.064v2.128h.12V206h-1.184Zm14.212 0a5.786 5.786 0 0 1-1.44.12 3.195 3.195 0 0 1-1.264-.304 1.823 1.823 0 0 1-.84-.848 2.488 2.488 0 0 1-.256-.968 34.437 34.437 0 0 1-.016-1.128v-7.912h1.168v7.864c0 .363.003.667.008.912.011.24.067.453.168.64.192.357.496.571.912.64.421.069.941.053 1.56-.048V206Zm-5.664-7.632v-1.008h5.664v1.008h-5.664Zm10.67 7.848c-.517 0-.97-.08-1.36-.24a3.01 3.01 0 0 1-.984-.648 3.442 3.442 0 0 1-.648-.928 4.712 4.712 0 0 1-.36-1.112 6.377 6.377 0 0 1-.112-1.176v-4.752h1.184v4.408c0 .475.046.915.136 1.32.091.405.235.76.432 1.064.203.299.462.531.776.696.32.165.707.248 1.16.248.416 0 .782-.072 1.096-.216.32-.144.587-.349.8-.616.219-.272.384-.6.496-.984.112-.389.168-.827.168-1.312l.832.184c0 .885-.154 1.629-.464 2.232-.309.603-.736 1.059-1.28 1.368-.544.309-1.168.464-1.872.464Zm2.904-.216v-2.128h-.12v-6.512h1.176V206h-1.056Zm13.596 0 .008-5.672c0-.667-.186-1.189-.56-1.568-.368-.384-.837-.576-1.408-.576-.325 0-.642.075-.952.224a1.836 1.836 0 0 0-.768.72c-.197.331-.296.763-.296 1.296l-.696-.2c-.016-.619.104-1.16.36-1.624a2.789 2.789 0 0 1 1.072-1.08 3.083 3.083 0 0 1 1.552-.392c.87 0 1.566.269 2.088.808.523.533.784 1.256.784 2.168l-.008 5.896h-1.176Zm-10.312 0v-8.64h1.056v2.128h.128V206h-1.184Zm5.168 0 .008-5.592c0-.688-.184-1.229-.552-1.624-.362-.4-.842-.6-1.44-.6-.597 0-1.08.205-1.448.616-.368.405-.552.947-.552 1.624l-.704-.384c0-.555.131-1.051.392-1.488a2.797 2.797 0 0 1 1.072-1.04 3.087 3.087 0 0 1 1.544-.384c.55 0 1.038.117 1.464.352.432.235.771.576 1.016 1.024.246.448.368.992.368 1.632l-.008 5.864h-1.16ZM51.699 232.24c-.806 0-1.494-.2-2.064-.6-.571-.405-1.008-.952-1.312-1.64-.304-.688-.456-1.464-.456-2.328 0-.859.149-1.632.448-2.32.304-.688.738-1.232 1.304-1.632.565-.4 1.242-.6 2.032-.6.81 0 1.493.197 2.048.592.554.395.973.936 1.256 1.624.288.683.432 1.461.432 2.336 0 .859-.142 1.635-.424 2.328-.283.688-.7 1.235-1.248 1.64-.55.4-1.222.6-2.016.6Zm.12-1.096c.613 0 1.12-.149 1.52-.448.4-.299.698-.709.896-1.232.197-.528.296-1.125.296-1.792 0-.677-.1-1.275-.296-1.792-.198-.523-.496-.931-.896-1.224-.395-.293-.894-.44-1.496-.44-.62 0-1.131.152-1.536.456-.406.304-.707.717-.904 1.24a5.076 5.076 0 0 0-.288 1.76c0 .656.098 1.248.296 1.776.202.523.504.936.904 1.24.4.304.9.456 1.504.456Zm2.712.856v-6.504h-.128v-5.016h1.184V232H54.53Zm3.46-10.28v-1.32h1.176v1.32H57.99Zm0 10.28v-8.64h1.176V232H57.99Zm7.006 4.08a4.44 4.44 0 0 1-1.312-.2 3.586 3.586 0 0 1-1.184-.616 3.397 3.397 0 0 1-.912-1.088l1.064-.592c.24.48.576.824 1.008 1.032.438.213.883.32 1.336.32.624 0 1.128-.117 1.512-.352.39-.229.672-.571.848-1.024.176-.453.262-1.019.256-1.696v-2.304h.136v-6.2h1.048v8.52c0 .245-.008.48-.024.704-.01.229-.034.453-.072.672-.101.645-.312 1.176-.632 1.592-.314.416-.73.725-1.248.928-.512.203-1.12.304-1.824.304Zm-.08-3.84c-.805 0-1.493-.2-2.064-.6-.57-.405-1.008-.952-1.312-1.64-.304-.688-.456-1.464-.456-2.328 0-.859.15-1.632.448-2.32.304-.688.739-1.232 1.304-1.632.566-.4 1.243-.6 2.032-.6.811 0 1.494.197 2.048.592.555.395.974.936 1.256 1.624.288.683.432 1.461.432 2.336 0 .859-.141 1.635-.424 2.328-.282.688-.698 1.235-1.248 1.64-.549.4-1.221.6-2.016.6Zm.12-1.096c.614 0 1.12-.149 1.52-.448.4-.299.699-.709.896-1.232.198-.528.296-1.125.296-1.792 0-.677-.098-1.275-.296-1.792-.197-.523-.496-.931-.896-1.224-.394-.293-.893-.44-1.496-.44-.618 0-1.13.152-1.536.456-.405.304-.706.717-.904 1.24a5.076 5.076 0 0 0-.288 1.76c0 .656.099 1.248.296 1.776.203.523.504.936.904 1.24.4.304.902.456 1.504.456Zm12.237.856v-4.408c0-.48-.045-.92-.136-1.32a3.051 3.051 0 0 0-.44-1.056 2.01 2.01 0 0 0-.776-.704c-.315-.165-.699-.248-1.152-.248-.416 0-.784.072-1.104.216a2.174 2.174 0 0 0-.8.624 2.797 2.797 0 0 0-.488.976 4.688 4.688 0 0 0-.168 1.312l-.832-.184c0-.885.155-1.629.464-2.232.31-.603.736-1.059 1.28-1.368.544-.309 1.168-.464 1.872-.464.517 0 .968.08 1.352.24.39.16.717.376.984.648.272.272.49.584.656.936.165.347.285.717.36 1.112.075.389.112.779.112 1.168V232h-1.184Zm-6.248 0v-8.64h1.064v2.128h.12V232h-1.184Zm9.668-10.28v-1.32h1.176v1.32h-1.176Zm0 10.28v-8.64h1.176V232h-1.176Zm6.798.232c-1.013 0-1.848-.219-2.504-.656a2.733 2.733 0 0 1-1.2-1.824l1.2-.2c.128.491.42.883.872 1.176.46.288 1.024.432 1.696.432.656 0 1.174-.136 1.552-.408.38-.277.568-.653.568-1.128 0-.267-.06-.483-.184-.648-.117-.171-.36-.328-.728-.472-.368-.144-.917-.315-1.648-.512-.784-.213-1.397-.427-1.84-.64-.442-.213-.757-.459-.944-.736-.186-.283-.28-.627-.28-1.032 0-.491.14-.92.416-1.288.278-.373.662-.661 1.152-.864.491-.208 1.062-.312 1.712-.312.651 0 1.232.107 1.744.32.518.208.934.501 1.248.88.315.379.502.819.56 1.32l-1.2.216a1.727 1.727 0 0 0-.76-1.2c-.42-.299-.957-.453-1.608-.464-.613-.016-1.112.101-1.496.352-.384.245-.576.573-.576.984 0 .229.07.427.208.592.14.16.39.312.752.456.368.144.891.301 1.568.472.795.203 1.42.416 1.872.64.454.224.776.488.968.792.192.304.288.68.288 1.128 0 .816-.304 1.459-.912 1.928-.602.464-1.434.696-2.496.696Zm8.407 0c-1.014 0-1.848-.219-2.504-.656a2.732 2.732 0 0 1-1.2-1.824l1.2-.2c.128.491.418.883.872 1.176.458.288 1.024.432 1.696.432.656 0 1.173-.136 1.552-.408.378-.277.568-.653.568-1.128 0-.267-.062-.483-.184-.648-.118-.171-.36-.328-.728-.472-.368-.144-.918-.315-1.648-.512-.784-.213-1.398-.427-1.84-.64-.443-.213-.758-.459-.944-.736-.187-.283-.28-.627-.28-1.032 0-.491.138-.92.416-1.288.277-.373.661-.661 1.152-.864.49-.208 1.061-.312 1.712-.312.65 0 1.232.107 1.744.32.517.208.933.501 1.248.88.314.379.501.819.56 1.32l-1.2.216a1.727 1.727 0 0 0-.76-1.2c-.422-.299-.958-.453-1.608-.464-.614-.016-1.112.101-1.496.352-.384.245-.576.573-.576.984a.89.89 0 0 0 .208.592c.138.16.389.312.752.456.368.144.89.301 1.568.472.794.203 1.418.416 1.872.64.453.224.776.488.968.792.192.304.288.68.288 1.128 0 .816-.304 1.459-.912 1.928-.603.464-1.435.696-2.496.696Zm5.342-10.512v-1.32h1.176v1.32h-1.176Zm0 10.28v-8.64h1.176V232h-1.176Zm13.878 0 .008-5.672c0-.667-.186-1.189-.56-1.568-.368-.384-.837-.576-1.408-.576-.325 0-.642.075-.952.224a1.836 1.836 0 0 0-.768.72c-.197.331-.296.763-.296 1.296l-.696-.2c-.016-.619.104-1.16.36-1.624a2.789 2.789 0 0 1 1.072-1.08 3.083 3.083 0 0 1 1.552-.392c.87 0 1.566.269 2.088.808.523.533.784 1.256.784 2.168l-.008 5.896h-1.176Zm-10.312 0v-8.64h1.056v2.128h.128V232h-1.184Zm5.168 0 .008-5.592c0-.688-.184-1.229-.552-1.624-.362-.4-.842-.6-1.44-.6-.597 0-1.08.205-1.448.616-.368.405-.552.947-.552 1.624l-.704-.384c0-.555.131-1.051.392-1.488a2.797 2.797 0 0 1 1.072-1.04 3.087 3.087 0 0 1 1.544-.384c.55 0 1.038.117 1.464.352.432.235.771.576 1.016 1.024.246.448.368.992.368 1.632l-.008 5.864h-1.16Zm14.078.24c-.651 0-1.197-.117-1.64-.352a2.395 2.395 0 0 1-.984-.936 2.549 2.549 0 0 1-.328-1.272c0-.469.093-.869.28-1.2.192-.336.451-.611.776-.824a3.912 3.912 0 0 1 1.144-.488c.437-.107.92-.2 1.448-.28a37.258 37.258 0 0 1 1.56-.216c.512-.064.96-.125 1.344-.184l-.416.256c.016-.853-.149-1.485-.496-1.896-.347-.411-.949-.616-1.808-.616-.592 0-1.093.133-1.504.4-.405.267-.691.688-.856 1.264l-1.144-.336c.197-.773.595-1.373 1.192-1.8.597-.427 1.373-.64 2.328-.64.789 0 1.459.149 2.008.448.555.293.947.72 1.176 1.28.107.251.176.531.208.84.032.309.048.624.048.944V232h-1.048v-2.168l.304.128c-.293.741-.749 1.307-1.368 1.696-.619.389-1.36.584-2.224.584Zm.136-1.016c.549 0 1.029-.099 1.44-.296.411-.197.741-.467.992-.808.251-.347.413-.736.488-1.168.064-.277.099-.581.104-.912.005-.336.008-.587.008-.752l.448.232c-.4.053-.835.107-1.304.16a37.1 37.1 0 0 0-1.376.184 11.8 11.8 0 0 0-1.216.248 3.28 3.28 0 0 0-.712.296 1.647 1.647 0 0 0-.568.496c-.144.208-.216.467-.216.776 0 .251.061.493.184.728a1.5 1.5 0 0 0 .608.584c.283.155.656.232 1.12.232Zm9.635 1.016c-.806 0-1.494-.2-2.064-.6-.571-.405-1.008-.952-1.312-1.64-.304-.688-.456-1.464-.456-2.328 0-.859.149-1.632.448-2.32.304-.688.738-1.232 1.304-1.632.565-.4 1.242-.6 2.032-.6.81 0 1.493.197 2.048.592.554.395.973.936 1.256 1.624.288.683.432 1.461.432 2.336 0 .859-.142 1.635-.424 2.328-.283.688-.699 1.235-1.248 1.64-.55.4-1.222.6-2.016.6Zm.12-1.096c.613 0 1.12-.149 1.52-.448.4-.299.698-.709.896-1.232.197-.528.296-1.125.296-1.792 0-.677-.099-1.275-.296-1.792-.198-.523-.496-.931-.896-1.224-.395-.293-.894-.44-1.496-.44-.619 0-1.131.152-1.536.456-.406.304-.707.717-.904 1.24a5.076 5.076 0 0 0-.288 1.76c0 .656.098 1.248.296 1.776.202.523.504.936.904 1.24.4.304.901.456 1.504.456Zm2.712.856v-6.504h-.128v-5.016h1.184V232h-1.056Zm3.46-10.28v-1.32h1.176v1.32h-1.176Zm0 10.28v-8.64h1.176V232h-1.176Zm7.454.24c-.794 0-1.466-.2-2.016-.6-.549-.405-.965-.952-1.248-1.64-.282-.693-.424-1.469-.424-2.328 0-.875.142-1.653.424-2.336.288-.688.71-1.229 1.264-1.624.555-.395 1.238-.592 2.048-.592.79 0 1.467.2 2.032.6.566.4.998.944 1.296 1.632.304.688.456 1.461.456 2.32 0 .864-.152 1.64-.456 2.328-.304.688-.741 1.235-1.312 1.64-.57.4-1.258.6-2.064.6Zm-3.888 3.6v-12.48h1.056v6.504h.128v5.976h-1.184Zm3.768-4.696c.603 0 1.104-.152 1.504-.456.4-.304.699-.717.896-1.24.203-.528.304-1.12.304-1.776 0-.651-.098-1.237-.296-1.76-.197-.523-.498-.936-.904-1.24-.4-.304-.909-.456-1.528-.456-.602 0-1.104.147-1.504.44-.394.293-.69.701-.888 1.224-.197.517-.296 1.115-.296 1.792 0 .667.099 1.264.296 1.792.198.523.496.933.896 1.232.4.299.907.448 1.52.448Zm5.869-9.424v-1.32h1.176v1.32h-1.176Zm0 10.28v-8.64h1.176V232h-1.176Zm6.798.232c-1.013 0-1.848-.219-2.504-.656a2.737 2.737 0 0 1-1.2-1.824l1.2-.2c.128.491.419.883.872 1.176.459.288 1.024.432 1.696.432.656 0 1.174-.136 1.552-.408.379-.277.568-.653.568-1.128 0-.267-.061-.483-.184-.648-.117-.171-.36-.328-.728-.472-.368-.144-.917-.315-1.648-.512-.784-.213-1.397-.427-1.84-.64-.442-.213-.757-.459-.944-.736-.186-.283-.28-.627-.28-1.032 0-.491.139-.92.416-1.288.278-.373.662-.661 1.152-.864.491-.208 1.062-.312 1.712-.312.651 0 1.232.107 1.744.32.518.208.934.501 1.248.88.315.379.502.819.56 1.32l-1.2.216a1.726 1.726 0 0 0-.76-1.2c-.421-.299-.957-.453-1.608-.464-.613-.016-1.112.101-1.496.352-.384.245-.576.573-.576.984 0 .229.07.427.208.592.139.16.39.312.752.456.368.144.891.301 1.568.472.795.203 1.419.416 1.872.64.454.224.776.488.968.792.192.304.288.68.288 1.128 0 .816-.304 1.459-.912 1.928-.602.464-1.434.696-2.496.696Zm8.767.008c-.87 0-1.606-.195-2.208-.584a3.711 3.711 0 0 1-1.376-1.608c-.31-.688-.47-1.477-.48-2.368.01-.907.176-1.701.496-2.384.32-.688.781-1.221 1.384-1.6.602-.384 1.333-.576 2.192-.576.874 0 1.634.213 2.28.64a3.23 3.23 0 0 1 1.336 1.752l-1.152.368a2.442 2.442 0 0 0-.968-1.2 2.675 2.675 0 0 0-1.504-.432c-.635 0-1.16.147-1.576.44-.416.288-.726.691-.928 1.208-.203.517-.307 1.112-.312 1.784.01 1.035.25 1.867.72 2.496.469.624 1.168.936 2.096.936.586 0 1.085-.133 1.496-.4.416-.272.73-.667.944-1.184l1.184.352c-.32.768-.79 1.355-1.408 1.76-.619.4-1.358.6-2.216.6Zm5.201-10.52v-1.32h1.176v1.32h-1.176Zm0 10.28v-8.64h1.176V232h-1.176Zm9.814 0v-4.408c0-.48-.045-.92-.136-1.32a3.05 3.05 0 0 0-.44-1.056 2.006 2.006 0 0 0-.776-.704c-.315-.165-.699-.248-1.152-.248-.416 0-.784.072-1.104.216a2.175 2.175 0 0 0-.8.624 2.804 2.804 0 0 0-.488.976 4.688 4.688 0 0 0-.168 1.312l-.832-.184c0-.885.155-1.629.464-2.232.309-.603.736-1.059 1.28-1.368.544-.309 1.168-.464 1.872-.464.517 0 .968.08 1.352.24.389.16.717.376.984.648.272.272.491.584.656.936.165.347.285.717.36 1.112.075.389.112.779.112 1.168V232h-1.184Zm-6.248 0v-8.64h1.064v2.128h.12V232h-1.184Zm12.94 4.08c-.443 0-.88-.067-1.312-.2a3.586 3.586 0 0 1-1.184-.616 3.39 3.39 0 0 1-.912-1.088l1.064-.592c.24.48.576.824 1.008 1.032.437.213.883.32 1.336.32.624 0 1.128-.117 1.512-.352.389-.229.672-.571.848-1.024.176-.453.261-1.019.256-1.696v-2.304h.136v-6.2h1.048v8.52c0 .245-.008.48-.024.704a5.661 5.661 0 0 1-.072.672c-.101.645-.312 1.176-.632 1.592a2.82 2.82 0 0 1-1.248.928c-.512.203-1.12.304-1.824.304Zm-.08-3.84c-.805 0-1.493-.2-2.064-.6-.571-.405-1.008-.952-1.312-1.64-.304-.688-.456-1.464-.456-2.328 0-.859.149-1.632.448-2.32.304-.688.739-1.232 1.304-1.632.565-.4 1.243-.6 2.032-.6.811 0 1.493.197 2.048.592.555.395.973.936 1.256 1.624.288.683.432 1.461.432 2.336 0 .859-.141 1.635-.424 2.328-.283.688-.699 1.235-1.248 1.64-.549.4-1.221.6-2.016.6Zm.12-1.096c.613 0 1.12-.149 1.52-.448.4-.299.699-.709.896-1.232.197-.528.296-1.125.296-1.792 0-.677-.099-1.275-.296-1.792-.197-.523-.496-.931-.896-1.224-.395-.293-.893-.44-1.496-.44-.619 0-1.131.152-1.536.456-.405.304-.707.717-.904 1.24a5.076 5.076 0 0 0-.288 1.76c0 .656.099 1.248.296 1.776.203.523.504.936.904 1.24.4.304.901.456 1.504.456Zm9.424.856v-1.368h1.368V232h-1.368Z"/>
</svg>
